<svg width="211" height="48" viewBox="0 0 211 48" fill="none" xmlns="http://www.w3.org/2000/svg">
<path d="M0 24L24 0L48 24L24 48L0 24Z" fill="#394656"/>
<path d="M23.9302 23.906H5.2149L18.4897 18.2566L23.9302 5.43578V23.906Z" fill="white"/>
<path d="M23.9302 23.906H5.2149L18.4897 18.2566L23.9302 23.906Z" fill="url(#paint0_linear_2043_9602)"/>
<path d="M24.0701 24.0945H42.7853L29.5105 29.7439L24.0701 42.5647V24.0945Z" fill="white"/>
<path d="M24.0701 24.0945H42.7853L29.5105 29.7439L24.0701 24.0945Z" fill="url(#paint1_linear_2043_9602)"/>
<path d="M67.409 38.2165C66.5967 38.2165 65.8459 38.0196 65.1567 37.6258C64.4921 37.2319 63.9628 36.7027 63.569 36.0381C63.1751 35.3489 62.9782 34.5981 62.9782 33.7858V16.0627C62.9782 15.2504 63.1751 14.5119 63.569 13.8473C63.9628 13.1581 64.4921 12.6165 65.1567 12.2227C65.8459 11.8289 66.5967 11.6319 67.409 11.6319H89.489V14.6227H67.409C67.0151 14.6227 66.6705 14.7704 66.3751 15.0658C66.1044 15.3365 65.969 15.6689 65.969 16.0627V33.7858C65.969 34.1796 66.1044 34.5242 66.3751 34.8196C66.6705 35.0904 67.0151 35.2258 67.409 35.2258H89.489V38.2165H67.409Z" fill="#394656"/>
<path d="M98.3972 38.2165C97.5849 38.2165 96.8342 38.0196 96.1449 37.6258C95.4803 37.2073 94.9388 36.6658 94.5203 36.0012C94.1265 35.3119 93.9296 34.5612 93.9296 33.7489V25.995H112.686V21.2689C112.686 20.875 112.539 20.5427 112.243 20.2719C111.973 19.9765 111.64 19.8289 111.246 19.8289H93.9296V16.8012H111.246C112.083 16.8012 112.834 17.0104 113.499 17.4289C114.188 17.8227 114.73 18.3642 115.123 19.0535C115.542 19.7181 115.751 20.4565 115.751 21.2689V38.2165H98.3972ZM98.3972 35.1889H112.686V29.0227H96.9572V33.7489C96.9572 34.1427 97.0926 34.4873 97.3634 34.7827C97.6588 35.0535 98.0034 35.1889 98.3972 35.1889Z" fill="#394656"/>
<path d="M123.904 38.2165C123.092 38.2165 122.341 38.0196 121.652 37.6258C120.987 37.2073 120.445 36.6658 120.027 36.0012C119.633 35.3119 119.436 34.5612 119.436 33.7489V33.4535H122.464V33.7489C122.464 34.1427 122.599 34.4873 122.87 34.7827C123.165 35.0535 123.51 35.1889 123.904 35.1889H136.753C137.147 35.1889 137.479 35.0535 137.75 34.7827C138.045 34.4873 138.193 34.1427 138.193 33.7489V30.4627C138.193 30.0689 138.045 29.7365 137.75 29.4658C137.479 29.1704 137.147 29.0227 136.753 29.0227H123.904C123.092 29.0227 122.341 28.8258 121.652 28.4319C120.987 28.0135 120.445 27.4719 120.027 26.8073C119.633 26.1181 119.436 25.3673 119.436 24.555V21.2689C119.436 20.4565 119.633 19.7181 120.027 19.0535C120.445 18.3642 120.987 17.8227 121.652 17.4289C122.341 17.0104 123.092 16.8012 123.904 16.8012H136.753C137.59 16.8012 138.341 17.0104 139.005 17.4289C139.695 17.8227 140.236 18.3642 140.63 19.0535C141.048 19.7181 141.258 20.4565 141.258 21.2689V21.5642H138.193V21.2689C138.193 20.875 138.045 20.5427 137.75 20.2719C137.479 19.9765 137.147 19.8289 136.753 19.8289H123.904C123.51 19.8289 123.165 19.9765 122.87 20.2719C122.599 20.5427 122.464 20.875 122.464 21.2689V24.555C122.464 24.9489 122.599 25.2935 122.87 25.5889C123.165 25.8596 123.51 25.995 123.904 25.995H136.753C137.59 25.995 138.341 26.2042 139.005 26.6227C139.695 27.0165 140.236 27.5581 140.63 28.2473C141.048 28.9119 141.258 29.6504 141.258 30.4627V33.7489C141.258 34.5612 141.048 35.3119 140.63 36.0012C140.236 36.6658 139.695 37.2073 139.005 37.6258C138.341 38.0196 137.59 38.2165 136.753 38.2165H123.904Z" fill="#394656"/>
<path d="M150.139 38.2165C149.303 38.2165 148.539 38.0196 147.85 37.6258C147.186 37.2073 146.656 36.6658 146.263 36.0012C145.869 35.3119 145.672 34.5612 145.672 33.7489V9.78578H148.699V16.8012H157.967V19.8289H148.699V33.7489C148.699 34.1427 148.835 34.4873 149.106 34.7827C149.401 35.0535 149.746 35.1889 150.139 35.1889H157.967V38.2165H150.139Z" fill="#394656"/>
<path d="M165.985 38.2165C165.173 38.2165 164.422 38.0196 163.733 37.6258C163.068 37.2073 162.527 36.6658 162.108 36.0012C161.714 35.3119 161.518 34.5612 161.518 33.7489V25.995H180.274V21.2689C180.274 20.875 180.127 20.5427 179.831 20.2719C179.561 19.9765 179.228 19.8289 178.834 19.8289H161.518V16.8012H178.834C179.671 16.8012 180.422 17.0104 181.087 17.4289C181.776 17.8227 182.318 18.3642 182.711 19.0535C183.13 19.7181 183.339 20.4565 183.339 21.2689V38.2165H165.985ZM165.985 35.1889H180.274V29.0227H164.545V33.7489C164.545 34.1427 164.681 34.4873 164.951 34.7827C165.247 35.0535 165.591 35.1889 165.985 35.1889Z" fill="#394656"/>
<path d="M187.713 38.2165V21.2689C187.713 20.4565 187.91 19.7181 188.303 19.0535C188.722 18.3642 189.264 17.8227 189.928 17.4289C190.617 17.0104 191.368 16.8012 192.18 16.8012H204.217V19.8289H192.18C191.787 19.8289 191.442 19.9765 191.147 20.2719C190.876 20.5427 190.74 20.875 190.74 21.2689V38.2165H187.713Z" fill="#394656"/>
<path d="M207.345 38.2165V16.8012H210.373V38.2165H207.345ZM207.345 12.8135V9.78578H210.373V12.8135H207.345Z" fill="#394656"/>
<defs>
<linearGradient id="paint0_linear_2043_9602" x1="178.471" y1="24.5124" x2="157.424" y2="53.7975" gradientUnits="userSpaceOnUse">
<stop stop-color="#F8F8F8"/>
<stop offset="1" stop-color="#A1AAB5"/>
</linearGradient>
<linearGradient id="paint1_linear_2043_9602" x1="178.471" y1="24.5124" x2="157.424" y2="53.7975" gradientUnits="userSpaceOnUse">
<stop stop-color="#F8F8F8"/>
<stop offset="1" stop-color="#A1AAB5"/>
</linearGradient>
</defs>
</svg>
